<?xml version="1.0" encoding="UTF-8"?>
<svg id="Layer_1" data-name="Layer 1" xmlns="http://www.w3.org/2000/svg" viewBox="0 0 7680 4320">
  <defs>
    <style>
      .cls-1 {
        fill: #004481;
      }

      .cls-2 {
        fill: #fece7f;
      }

      .cls-3 {
        fill: #c000a5;
      }

      .cls-4 {
        fill: #ff3f00;
      }

      .cls-5 {
        fill: #913207;
      }

      .cls-6 {
        fill: #cc02d2;
      }

      .cls-7 {
        fill: #8800cf;
      }

      .cls-8 {
        fill: #e25401;
      }

      .cls-9 {
        fill: #670280;
      }

      .cls-10 {
        fill: #b300df;
      }

      .cls-11 {
        fill: #2b007f;
      }

      .cls-12 {
        fill: #ff0f07;
      }

      .cls-13 {
        fill: #2c00a0;
      }

      .cls-14 {
        fill: #01175f;
      }

      .cls-15 {
        fill: #f213a4;
      }

      .cls-16 {
        fill: #ff0087;
      }
    </style>
  </defs>
  <path class="cls-2" d="M5516,2336c552.3,271.73,1095.65,689,1749.98,627.98,143.53-13.38,285.72-56.13,414.02-119.98v244c-146.79,71.09-302.27,121.91-463.26,150.74-330.46,59.19-642.24,33.37-968.74-30.74-479.9-198.33-930.95-505.41-1462.03-551.97-407.57-35.73-827.29,55.04-1229.97,107.97-207.2-46.99-413.29-101.83-626.04-123.96-236.75-24.63-472.86-18.15-709.96-16.04-39.55-35.06-91.04-59.59-140.92-77.08-126.08-44.23-253.46-44.21-385.05-30.88-128.89,13.06-268.02,52.61-394.04,59.96-51.1,2.98-263.04-70.73-327.06-90.94-299.55-94.54-657.02-203.5-896.94-409.06,682.22,284.6,1431.07,403.16,2169.98,331.98,570.14-54.92,1120.77-236.09,1686.02-311.98,597.81-80.26,1045.58-24.91,1584,240Z"/>
  <path class="cls-2" d="M4844,0c-52.06,48.99-101.51,99.92-145.59,156.41-187.03,239.73-299.79,552.42-566.75,721.25-108.47,68.6-239.07,113.92-367.66,122.34-274.79-195.54-467.82-271.54-817.49-231.49-326.11,37.36-630.31,180.03-954.51,227.49-158.81-137.86-208.77-308.33-336.1-461.9-170.11-205.17-526.77-336.01-772.03-435.97-82.29-33.54-166.2-63.21-247.87-98.13h4208Z"/>
  <path class="cls-15" d="M2752,3496c264.35,126.83,489.72,344.46,790.66,387.34,406.16,57.88,783.91-159.38,1183.38-179.3,476.35-23.75,868.11,281.03,1328.53,343.39,107.91,14.62,213.09,17.24,321.43,12.57,64.81-2.79,125.34-11.83,188-20,2.59-.34,5.41.33,8,0l2,3.92,2-3.92c9.1-1.26,19.49.96,29.48-.52,381.11-56.54,737.64-212.54,1074.52-391.48v672h-2176c-69-169.75-244.96-253.2-418.51-275.49-73.47-9.43-138.57-7.57-211.53-4.56-545.43,22.54-1093.07,198.24-1638.71,86.79-487.96-99.67-934.43-471.53-1451.98-377.49-304.54,55.34-616,268.05-928.7,134.17-140.7-60.24-255.59-174.92-395.88-236.12-144.17-62.9-306.95-72.13-458.69-31.31v-300c423.67,199.52,898.04,281.98,1365.5,227.5,481.37-56.1,909.35-276.44,1386.5-47.5Z"/>
  <path class="cls-3" d="M740,3072c142.34,106.08,464.37,158.13,640,164,321.66,10.76,636.44-49.41,953.82-88.23,6.08-2.59,12.15-5.17,18.18-7.77,4.11,8,13.97,2.7,19.96,2.03,212-23.65,428.78-40.74,641.53-13.52,227.99,29.17,444.14,114.26,666.51,167.49,204.56,48.97,358.64,64.75,568.74,26.74,363.54-65.77,728.45-272.43,1107.26-174.74,227.05,58.55,433.59,227.8,604.06,381.94,174.73,158,341.36,325.69,513.92,486.08,26.03,18.08,61.51,12.48,90.03,23.97-62.66,8.17-123.19,17.21-188,20-486.58-110.18-920.83-402.98-1418.66-471.34-544.21-74.72-1006.91,242.5-1543.02,103.02-217.49-56.58-418.37-162.06-642.99-197.08-5.84-.91-15.49-6.29-19.32,1.39-477.15-228.93-905.13-8.6-1386.5,47.5-467.46,54.48-941.83-27.98-1365.5-227.5v-716c295.52,69.92,482.16,332.81,740,472Z"/>
  <path class="cls-11" d="M4844,0h2836v812c-110.54,70.67-228.69,122.86-355.14,158.84-10.03,2.85-20.55,2.97-28.86,5.16-436.37-73.88-821.59-354.81-1262.51-407.49-767.35-91.68-1350.16,601.32-2109.49,567.49-50.44-40.13-112.94-102.51-160-136,128.59-8.42,259.19-53.74,367.66-122.34,266.96-168.83,379.72-481.52,566.75-721.25,44.08-56.5,93.53-107.42,145.59-156.41Z"/>
  <path class="cls-1" d="M2116,1220c58.76-16.62,114.59-38.16,172-56,308.86-95.97,520.7-165.98,852.04-94.04,683.89,148.47,1219.47,773.04,1955.96,742.04-88.1,41.64-175.65,83.81-268,116-632.16.45-1199.25-268.87-1825.84-300.16-729.85-36.45-1453.55,178.68-2188.12,132.12-112.02-7.1-222.87-26.27-334.04-39.96-141.19-135.8-269.79-289.18-428.43-405.57-15.04-11.03-33.5-27.35-51.57-30.43v-232c56.2-14.86,109.94-37.03,166.31-51.69,255.31-66.36,529.13-60.45,780.75,18.62,226.11,71.05,436.5,206.63,672.2,247.8,180.31,31.49,324.79,1.89,496.73-46.73Z"/>
  <path class="cls-12" d="M5504,4320H0v-704c151.74-40.83,314.52-31.59,458.69,31.31,140.29,61.21,255.17,175.88,395.88,236.12,312.69,133.88,624.16-78.83,928.7-134.17,517.55-94.05,964.02,277.82,1451.98,377.49,545.64,111.45,1093.28-64.26,1638.71-86.79,72.96-3.01,138.05-4.88,211.53,4.56,173.56,22.28,349.51,105.74,418.51,275.49Z"/>
  <path class="cls-6" d="M3764,1000c47.06,33.49,109.56,95.87,160,136,49.1,39.06,96.15,76.41,148,112,432.65,297.02,889.33,201.22,1354.08,40.08,257.73-89.36,539.31-228,817.97-142.12,175.58,54.12,304.72,203.49,463.87,288.13,305.58,162.52,679.27,87.65,972.09-66.09v288c-182.09,82.25-377.23,147.34-578.02,163.98-377.99,31.32-592.27-118.26-929.99-217.96-445.01-131.38-691.84,28.41-1075.99,209.99-736.49,31-1272.07-593.57-1955.96-742.04-331.34-71.93-543.19-1.93-852.04,94.04-111.72-37.62-207.18-90.9-296-168,324.2-47.46,628.4-190.13,954.51-227.49,349.67-40.06,542.7,35.95,817.49,231.49Z"/>
  <path class="cls-4" d="M480,1720c195.77,188.29,380.36,325.15,662.02,351.98,610.25,58.14,1144.51-369.33,1752.14-340.14,250.92,12.05,505.99,114.66,732.54,215.46,103.25,45.94,206.44,94.31,305.3,148.7-565.25,75.89-1115.88,257.06-1686.02,311.98-738.91,71.18-1487.76-47.38-2169.98-331.98-5.8-4.97-13.79-8.31-20.05-13.96-18.05-16.28-33.84-40.08-55.95-50.04v-728c18.07,3.08,36.53,19.4,51.57,30.43,158.65,116.39,287.24,269.77,428.43,405.57Z"/>
  <path class="cls-13" d="M7680,2844c-128.3,63.85-270.49,106.59-414.02,119.98-654.32,61.02-1197.68-356.24-1749.98-627.98,530.3,112.91,1060.82-1.95,1540-232,219.56-105.41,428.23-231.22,624-376v1116Z"/>
  <path class="cls-16" d="M7680,1368c-292.81,153.74-666.5,228.6-972.09,66.09-159.15-84.64-288.29-234.01-463.87-288.13-278.66-85.89-560.24,52.76-817.97,142.12-464.74,161.14-921.43,256.95-1354.08-40.08,478.35,47.14,942.1-98.78,1407.26-178.74,119.53-20.55,245.81-40.76,366.78-49.22,486.09-34,971.48,82.04,1449.96-44.04,8.31-2.19,18.83-2.3,28.86-5.16,126.45-35.99,244.6-88.18,355.14-158.84v556Z"/>
  <path class="cls-6" d="M452,360c106.57,48.6,207.5,147.2,330.49,159.51,174.88,17.51,315.78-80.8,513.51-47.51,102.24,17.21,209.58,67.21,289.89,132.11,181.71,146.86,225.95,383.83,334.11,579.89-337.92-56.64-624.82-337.53-962.49-375.51C632.16,771.9,326.34,971.17,0,924V316c109.54-19.5,214.27-22.85,323.3,2.7,35.35,8.28,96.35,26.55,128.7,41.3Z"/>
  <path class="cls-5" d="M2612,2892c-180.75,50.1-359.66,108.16-540,160l-701.98-44.02c-330.48-30.5-668.62-109.18-934.02-315.98-106.01-157.23-207.9-325.77-370.76-431.24-19.1-12.37-43.22-28.54-65.24-32.76v-112c30.87,11.55,59.71,35.98,88.34,53.66,379.05,234.11,921.11,391.79,1353.97,502.03,389.9,99.29,755.89,151.47,1151.64,212.35,7.08,1.09,13.87.7,18.05,7.96Z"/>
  <path class="cls-11" d="M5956,3456c3.1,2.18,5.88,2.69,8,4,94.12,57.93,322.19,80.27,433.84,84.16,168.73,5.89,355.85-4.29,524.15-20.18,256.06-24.18,509.16-73.73,758.02-135.98v260c-336.88,178.95-693.42,334.95-1074.52,391.48-9.99,1.48-20.38-.74-29.48.52-1.31.18-2.69-.17-4,0-2.59.33-5.41-.34-8,0-28.52-11.5-64-5.89-90.03-23.97-172.56-160.39-339.19-328.08-513.92-486.08-170.46-154.15-377-323.39-604.06-381.94-21.64-55.62-65.46-97.94-96-148,65.62,22.57,122.28,25.73,190.71,59.29,200.4,98.26,295.21,311.57,505.29,396.71Z"/>
  <path class="cls-16" d="M7680,1656v72c-195.77,144.78-404.44,270.59-624,376-309.05-101.4-622.69-212.6-950.03-239.97-426.32-35.64-851.67,63.66-1277.97,63.97,92.35-32.19,179.9-74.36,268-116,384.15-181.58,630.98-341.36,1075.99-209.99,337.72,99.7,552,249.29,929.99,217.96,200.79-16.64,395.93-81.73,578.02-163.98Z"/>
  <path class="cls-16" d="M6248,3208c326.5,64.11,638.28,89.93,968.74,30.74,160.99-28.84,316.47-79.65,463.26-150.74v300c-248.85,62.26-501.96,111.81-758.02,135.98-168.3,15.89-355.42,26.07-524.15,20.18-111.65-3.9-339.71-26.24-433.84-84.16-2.03-2.76-5.21-2.87-8-4-136.23-95.98-221.14-285.2-332-408,205.91,61.79,412.79,118.53,624,160Z"/>
  <path class="cls-10" d="M636,0c81.67,34.92,165.58,64.59,247.87,98.13,245.26,99.96,601.92,230.8,772.03,435.97,127.33,153.57,177.29,324.05,336.1,461.9,88.82,77.1,184.28,130.38,296,168-57.41,17.84-113.24,39.38-172,56l-196-36c-108.16-196.05-152.4-433.02-334.11-579.89-80.31-64.9-187.65-114.9-289.89-132.11-73.93-43.61-161.29-55.25-240.99-85.01-74.62-27.86-145.11-73.29-222.14-93.86-133.62-35.66-263.11,3.13-380.87,66.87-32.35-14.75-93.35-33.02-128.7-41.3-109.03-25.55-213.76-22.2-323.3-2.7V0h636Z"/>
  <path class="cls-7" d="M1920,1184l196,36c-171.94,48.63-316.43,78.23-496.73,46.73-235.7-41.17-446.09-176.75-672.2-247.8-251.62-79.07-525.44-84.99-780.75-18.62-56.38,14.65-110.11,36.83-166.31,51.69v-128c326.34,47.17,632.16-152.1,957.51-115.51,337.68,37.98,624.57,318.87,962.49,375.51Z"/>
  <path class="cls-16" d="M436,2692c87.89,130.37,175.29,284.08,304,380-257.84-139.19-444.48-402.08-740-472v-372c22.02,4.22,46.14,20.39,65.24,32.76,162.86,105.47,264.75,274.01,370.76,431.24Z"/>
  <path class="cls-6" d="M76,2076c239.91,205.56,597.38,314.53,896.94,409.06,64.03,20.21,275.96,93.92,327.06,90.94-2.42,11.83,5.9,7.03,12.73,9.07,61.37,18.28,124.51,35.56,187.27,46.93,79.33,26.54,162.5,41.47,244,60,298.96,67.98,655.35,148.23,960,168v4c-30.66,7.14-61.6,19.57-92,28-4.17-7.26-10.97-6.87-18.05-7.96-395.75-60.88-761.74-113.06-1151.64-212.35-432.86-110.23-974.92-267.91-1353.97-502.03-28.63-17.68-57.47-42.12-88.34-53.66v-104c22.1,9.95,37.9,33.75,55.95,50.04,6.26,5.65,14.25,8.99,20.05,13.96Z"/>
  <path class="cls-14" d="M4828,1928c426.3-.31,851.65-99.61,1277.97-63.97,327.34,27.37,640.98,138.57,950.03,239.97-479.18,230.05-1009.7,344.91-1540,232-538.42-264.91-986.19-320.26-1584-240-98.86-54.39-202.04-102.76-305.3-148.7-226.55-100.8-481.62-203.41-732.54-215.46-607.63-29.18-1141.89,398.28-1752.14,340.14-281.66-26.83-466.25-163.69-662.02-351.98,111.17,13.69,222.02,32.86,334.04,39.96,734.57,46.56,1458.28-168.57,2188.12-132.12,626.58,31.29,1193.67,300.62,1825.84,300.16Z"/>
  <path class="cls-8" d="M3556,2764c96.81,29.72,196.8,55.51,295.95,78.05,184.53,41.96,448.81,95.7,635.26,75.07,6.42-.71,16.64-4.57,20.79,2.87-178.68,65.05-329.92,145.12-520,180-180.28-134.01-413.45-157.31-632-168-196.3-100.17-344.74-121.16-564-84-155.55-47.67-313.35-90.56-474.67-115.33-158.99-24.42-322.56-35.67-483.17-40.83-29.97-.96-60.22,1.04-90.16.16-81.5-18.53-164.67-33.46-244-60,239.98-2.04,480.02-5.86,720-8,237.1-2.11,473.21-8.59,709.96,16.04,212.74,22.13,418.84,76.97,626.04,123.96Z"/>
  <path class="cls-11" d="M6248,3208c-211.21-41.47-418.09-98.21-624-160-126.17-139.76-289.7-199.63-478.16-192.16-27.3,1.08-58.22,8.17-85.84,8.16-44.25,0-100.74-21.23-150.04-23.96-135.73-7.51-276.32,34.22-401.96,79.96-4.15-7.44-14.37-3.58-20.79-2.87-186.45,20.63-450.74-33.11-635.26-75.07-99.14-22.54-199.14-48.33-295.95-78.05,402.68-52.92,822.4-143.7,1229.97-107.97,531.09,46.55,982.13,353.64,1462.03,551.97Z"/>
  <path class="cls-7" d="M2220,2624c-239.98,2.14-480.02,5.96-720,8-62.76-11.37-125.91-28.65-187.27-46.93-6.83-2.03-15.15,2.76-12.73-9.07,126.02-7.35,265.14-46.91,394.04-59.96,131.58-13.33,258.96-13.36,385.05,30.88,49.88,17.5,101.37,42.02,140.92,77.08Z"/>
  <path class="cls-9" d="M6376,4060c-108.34,4.66-213.51,2.04-321.43-12.57-460.42-62.36-852.18-367.14-1328.53-343.39-399.47,19.92-777.22,237.17-1183.38,179.3-300.94-42.88-526.31-260.51-790.66-387.34,3.82-7.68,13.48-2.3,19.32-1.39,224.63,35.02,425.5,140.49,642.99,197.08,536.12,139.48,998.81-177.75,1543.02-103.02,497.83,68.36,932.08,361.16,1418.66,471.34Z"/>
  <path class="cls-3" d="M6572,4040c1.31-.17,2.69.18,4,0l-2,3.92-2-3.92Z"/>
  <path class="cls-7" d="M3356,2932c238.57,121.74,340.64,221.47,632,168,190.08-34.88,341.32-114.95,520-180,125.64-45.74,266.23-87.48,401.96-79.96,49.3,2.73,105.79,23.95,150.04,23.96-2.35,10.55,5.51,7.64,11.65,10.14,40.38,16.47,78.77,36.3,113.67,62.53,20.13,15.13,57.52,57.42,74.68,63.32,30.54,50.06,74.36,92.38,96,148-378.81-97.69-743.72,108.97-1107.26,174.74-210.1,38.01-364.18,22.22-568.74-26.74-150.35-143.21-350.42-241.77-555.27-278.73-238.79-43.09-477.23-16-698.17,83.3-24.89,11.18-50.96,29.24-74.56,39.44-6.03,2.6-12.11,5.19-18.18,7.77-317.37,38.81-632.15,98.98-953.82,88.23,223.28-55.72,446.64-110.95,667.95-174.03,8.92-2.54,17.81-8.18,24.05-9.97,180.34-51.84,359.25-109.9,540-160,30.4-8.43,61.34-20.86,92-28,2.37-.55,5.61.54,8,0,26.27-5.95,53.43-11.5,80-16,219.26-37.16,367.7-16.17,564,84Z"/>
  <path class="cls-6" d="M2072,3052c-6.23,1.79-15.12,7.43-24.05,9.97-221.32,63.08-444.68,118.3-667.95,174.03-175.63-5.87-497.66-57.92-640-164-128.71-95.92-216.11-249.63-304-380,265.4,206.8,603.54,285.48,934.02,315.98l701.98,44.02Z"/>
  <path class="cls-16" d="M3680,3296c-222.37-53.23-438.52-138.32-666.51-167.49-212.75-27.22-429.53-10.13-641.53,13.52-5.99.67-15.85,5.96-19.96-2.03,23.61-10.19,49.68-28.25,74.56-39.44,220.94-99.3,459.38-126.38,698.17-83.3,204.84,36.96,404.92,135.53,555.27,278.73Z"/>
  <path class="cls-5" d="M7296,976c-478.48,126.08-963.87,10.04-1449.96,44.04-120.97,8.46-247.26,28.67-366.78,49.22-465.16,79.96-928.91,225.88-1407.26,178.74-51.85-35.59-98.9-72.94-148-112,759.33,33.83,1342.14-659.17,2109.49-567.49,440.92,52.68,826.14,333.61,1262.51,407.49Z"/>
  <path class="cls-13" d="M1296,472c-197.73-33.29-338.63,65.03-513.51,47.51-122.98-12.32-223.92-110.92-330.49-159.51,117.75-63.74,247.25-102.53,380.87-66.87,77.04,20.56,147.53,66,222.14,93.86,79.7,29.76,167.06,41.4,240.99,85.01Z"/>
  <path class="cls-6" d="M5624,3048c110.86,122.8,195.77,312.02,332,408-210.08-85.14-304.89-298.45-505.29-396.71-68.44-33.56-125.09-36.71-190.71-59.29-17.16-5.9-54.55-48.2-74.68-63.32-34.9-26.23-73.3-46.06-113.67-62.53-6.14-2.51-14,.4-11.65-10.14,27.62,0,58.54-7.08,85.84-8.16,188.46-7.46,352,52.4,478.16,192.16Z"/>
  <path class="cls-3" d="M5964,3460c-2.12-1.31-4.9-1.82-8-4,2.79,1.13,5.97,1.24,8,4Z"/>
  <path class="cls-12" d="M2792,2848c-26.57,4.5-53.73,10.05-80,16-1.05-3.88-4.61-3.78-8-4-304.65-19.77-661.04-100.02-960-168,29.95.88,60.19-1.13,90.16-.16,160.61,5.16,324.18,16.41,483.17,40.83,161.31,24.77,319.11,67.67,474.67,115.33Z"/>
  <path class="cls-3" d="M2712,2864c-2.39.54-5.63-.55-8,0v-4c3.39.22,6.95.12,8,4Z"/>
  <path class="cls-12" d="M3988,3100c-291.36,53.47-393.43-46.26-632-168,218.55,10.69,451.72,33.99,632,168Z"/>
</svg>